<svg xmlns="http://www.w3.org/2000/svg" id="Layer_1" data-name="Layer 1" viewBox="0 0 350 100"><defs><style>      .cls-1 {        fill: #fff;      }      .cls-2 {        fill: #03a9fc;      }      .cls-3 {        fill: #0f1b63;      }      .cls-4 {        fill: #00e6c0;      }    </style></defs><path class="cls-1" d="m341.97,9.15c0-2.27,1.8-4.07,4.02-4.07s4.01,1.8,4.01,4.07-1.81,4.1-4.01,4.1-4.02-1.81-4.02-4.1Zm7.47,0c0-1.96-1.53-3.53-3.45-3.53s-3.46,1.57-3.46,3.53,1.52,3.56,3.46,3.56,3.45-1.57,3.45-3.56Zm-5.32,0c0-1.08.87-1.97,1.92-1.97.76,0,1.33.35,1.64.96l-.47.26c-.24-.41-.64-.67-1.17-.67-.74,0-1.35.66-1.35,1.44s.6,1.42,1.35,1.42c.53,0,.93-.25,1.17-.67l.47.26c-.32.61-.9.96-1.64.96-1.04,0-1.92-.89-1.92-1.97Z"></path><path class="cls-2" d="m11.28,13.75v54.17H0V13.75h11.28Z"></path><path class="cls-2" d="m14.59,13.75v10.41h15.29v12.73h11.29v-12.73h15.27v-10.41H14.59Zm15.29,54.17h11.29v-20.93h-11.29v20.93Z"></path><path class="cls-3" d="m73.68,57.81v-10.82h-11.27v11.28c0,5.95,2.79,9.65,9.95,9.65h27.98v-10.1h-26.66Zm0-31.75h26.18v-10.1h-27.5c-7.17,0-9.95,3.77-9.95,9.72v8.15h11.27v-7.77Z"></path><path class="cls-3" d="m134.6,52.06l9.34,15.22h13.52l-12.36-19.7c-1.85-2.93-2.63-4.87-2.63-6.72s.85-3.78,2.63-6.64l11.82-18.92h-13.21l-9.19,15.22-6.25,10.12,6.33,11.43Z"></path><path class="cls-4" d="m126.7,52.71l-9.34,15.22h-13.52l12.36-19.7c1.85-2.93,2.63-4.87,2.63-6.72s-.85-3.78-2.63-6.64l-11.82-18.92h13.21l9.19,15.22,6.25,10.12-6.33,11.43Z"></path><path class="cls-3" d="m162.11,67.93V15.95h18.31c14.75,0,23.79,6.87,23.79,18.92s-8.88,19.31-23.17,19.31h-7.65v13.67l-11.28.08Zm11.28-41.55v17.38h7.34c7.41,0,11.89-2.86,11.89-8.88,0-5.71-4.48-8.5-11.89-8.5h-7.34Z"></path><g><path class="cls-3" d="m218.98,57.81v-8.95h-11.28v9.43c0,5.95,2.78,9.65,9.97,9.65h27.97v-10.12h-26.65Zm0-31.73h26.18v-10.12h-27.49c-7.18,0-9.97,3.78-9.97,9.73v8.16h11.28v-7.76Z"></path><path class="cls-3" d="m236.1,38.74v10.11h-28.4v-5.98c0-2.28,1.85-4.12,4.12-4.12h24.28Z"></path></g><path class="cls-3" d="m249.14,67.93V15.95h20c11.74,0,20.78,5.48,20.78,16.53,0,7.11-4.17,12.59-10.81,14.37,3.32,1.85,5.25,5.41,7.95,10.81l5.02,10.27h-12.2l-4.63-9.27c-2.39-4.79-4.63-7.34-10.5-7.34h-4.4l-.08,16.61h-11.12Zm11.28-41.55l-.08,14.91h8.81c5.33,0,9.19-2.78,9.19-7.65s-3.94-7.26-9.04-7.26h-8.88Z"></path><path class="cls-3" d="m337.44,26.38h-15.29v41.55h-11.28V26.38h-15.29v-10.43h41.86v10.43Z"></path><rect class="cls-2" x="18.56" y="36.89" width="11.33" height="10.1"></rect><rect class="cls-4" x="41.18" y="36.89" width="79.86" height="10.1"></rect><g><path class="cls-3" d="m270.61,94.64v-15.29c0-1.45.72-2.25,1.74-2.25.82,0,1.32.41,1.69,1.29l6.01,14.41c.22.52.35.72.65.72.26,0,.39-.23.39-.7v-15.47h1.32v15.31c0,1.45-.8,2.22-1.67,2.22-.76,0-1.37-.39-1.74-1.29l-6.03-14.53c-.17-.44-.3-.65-.56-.65-.33,0-.48.28-.48.83v15.39h-1.32Z"></path><path class="cls-3" d="m285.59,85.97c0-4.97,3.26-8.84,7.36-8.84s7.33,3.88,7.33,8.84-3.26,8.92-7.33,8.92-7.36-3.88-7.36-8.92Zm13.26,0c0-4.06-2.63-7.27-5.9-7.27s-5.92,3.21-5.92,7.27,2.63,7.35,5.92,7.35,5.9-3.23,5.9-7.35Z"></path><path class="cls-3" d="m301.8,77.36h1.39l2.76,15.16c.11.62.28.93.58.93s.52-.28.65-.93l2.63-13.48c.22-1.16.82-1.71,1.56-1.71s1.35.52,1.58,1.68l2.78,13.48c.13.62.28.93.63.93.33,0,.48-.34.56-.93l2.47-15.13h1.39l-2.58,15.42c-.22,1.27-.76,2.12-1.78,2.12s-1.58-.67-1.89-2.12l-2.76-13.37c-.09-.44-.2-.59-.41-.59-.19,0-.33.16-.41.59l-2.65,13.63c-.24,1.22-.91,1.89-1.78,1.89s-1.61-.67-1.84-1.94l-2.89-15.62Z"></path></g></svg>